M48
INCH
T01C0.022
T02C0.022
T03C0.0276
T04C0.0291
T05C0.0295
T06C0.032
T07C0.0335
T08C0.0354
T09C0.0394
%
T01
X+008875Y+016125
X+010750Y+016125
X+012500Y+016125
X+014375Y+015099
X+014875Y+016125
X+014875Y+019125
X+012500Y+019125
X+010750Y+019125
X+008875Y+019125
X+007000Y+019145
X+007000Y+016145
X+014375Y+012099
X+014875Y+009250
X+014875Y+006250
X+013125Y+005250
X+013125Y+002250
X+017206Y+002325
X+018987Y+002325
X+018987Y+005325
X+018375Y+006125
X+017206Y+005325
X+020625Y+006125
X+020625Y+009125
X+018375Y+009125
X+018375Y+011375
X+018375Y+014375
X+018375Y+016875
X+018375Y+019875
X+007500Y+005625
X+007500Y+002625
T02
X+006000Y+018625
X+008000Y+018625
X+008875Y+019125
X+010750Y+019125
X+012500Y+019125
X+014875Y+016125
X+014375Y+015099
X+018375Y+014375
X+018375Y+019875
X+014875Y+009250
X+018375Y+006125
X+018987Y+005325
X+020625Y+006125
X+017206Y+002325
X+013125Y+002250
X+007500Y+005625
X+007000Y+016145
T03
X+021000Y+002795
X+021000Y+002205
X+020500Y+016580
X+020500Y+017170
T04
X+011938Y+007875
X+011938Y+008875
X+011938Y+009875
X+011938Y+010875
X+011938Y+011875
X+011938Y+012875
X+011938Y+013875
X+008812Y+013875
X+008812Y+012875
X+008812Y+011875
X+008812Y+010875
X+008812Y+009875
X+008812Y+008875
X+008812Y+007875
T05
X+001750Y+002374
X+001750Y+001626
T06
X+018125Y+002500
X+013375Y+006500
X+013375Y+013125
X+006875Y+013000
T07
X+004344Y+019706
X+003871Y+017794
T08
X+015125Y+004875
X+015125Y+002875
X+010500Y+003375
X+010500Y+005375
X+004875Y+005375
X+004875Y+007375
X+002250Y+007274
X+002250Y+005274
X+002250Y+010750
X+002250Y+012750
X+004875Y+012750
X+004875Y+010750
T09
X+001250Y+019500
X+001250Y+018516
X+001250Y+017531
X+001250Y+016547
T00
M30
