G04 DipTrace 4.1.2.0*
G04 TopSilk.gbr*
%MOIN*%
G04 #@! TF.FileFunction,Legend,Top*
G04 #@! TF.Part,Single*
%ADD10C,0.004724*%
%ADD65C,0.00772*%
%FSLAX26Y26*%
G04*
G70*
G90*
G75*
G01*
G04 TopSilk*
%LPD*%
X2011417Y250000D2*
G54D10*
G02X2011417Y250000I88583J0D01*
G01*
G36*
X2174609Y334451D2*
X2175894Y334367D1*
X2177156Y334116D1*
X2178375Y333702D1*
X2179530Y333133D1*
X2180601Y332418D1*
X2181569Y331569D1*
X2182418Y330601D1*
X2183133Y329530D1*
X2183702Y328375D1*
X2184116Y327156D1*
X2184367Y325894D1*
X2184451Y324609D1*
X2184367Y323324D1*
X2184116Y322061D1*
X2183702Y320842D1*
X2183133Y319688D1*
X2182418Y318617D1*
X2181569Y317649D1*
X2180601Y316800D1*
X2179530Y316085D1*
X2178375Y315516D1*
X2177156Y315102D1*
X2175894Y314851D1*
X2174609Y314766D1*
D1*
X2173324Y314851D1*
X2172061Y315102D1*
X2170842Y315516D1*
X2169688Y316085D1*
X2168617Y316800D1*
X2167649Y317649D1*
X2166800Y318617D1*
X2166085Y319688D1*
X2165516Y320842D1*
X2165102Y322061D1*
X2164851Y323324D1*
X2164766Y324609D1*
X2164851Y325894D1*
X2165102Y327156D1*
X2165516Y328375D1*
X2166085Y329530D1*
X2166800Y330601D1*
X2167649Y331569D1*
X2168617Y332418D1*
X2169688Y333133D1*
X2170842Y333702D1*
X2172061Y334116D1*
X2173324Y334367D1*
X2174609Y334451D1*
D1*
G37*
X1452502Y267618D2*
G54D10*
X1452498Y507379D1*
X1572502Y267621D2*
X1572498Y507382D1*
G03X1452498Y507379I-60000J118D01*
G01*
X1452502Y267618D2*
G03X1572502Y267621I60000J-118D01*
G01*
X285000Y1294881D2*
Y1055119D1*
X165000Y1294881D2*
Y1055119D1*
G03X285000Y1055119I60000J-119D01*
G01*
Y1294881D2*
G03X165000Y1294881I-60000J119D01*
G01*
X284997Y747323D2*
X285003Y507562D1*
X164997Y747320D2*
X165003Y507559D1*
G03X285003Y507562I60000J-118D01*
G01*
X284997Y747323D2*
G03X164997Y747320I-60000J118D01*
G01*
X547497Y1294882D2*
X547503Y1055121D1*
X427497Y1294879D2*
X427503Y1055118D1*
G03X547503Y1055121I60000J-118D01*
G01*
X547497Y1294882D2*
G03X427497Y1294879I-60000J118D01*
G01*
X1110000Y557381D2*
Y317619D1*
X990000Y557381D2*
Y317619D1*
G03X1110000Y317619I60000J-119D01*
G01*
Y557381D2*
G03X990000Y557381I-60000J119D01*
G01*
X547500Y757381D2*
Y517619D1*
X427500Y757381D2*
Y517619D1*
G03X547500Y517619I60000J-119D01*
G01*
Y757381D2*
G03X427500Y757381I-60000J119D01*
G01*
X1961417Y1687500D2*
G02X1961417Y1687500I88583J0D01*
G01*
G36*
X2124609Y1771951D2*
X2125894Y1771867D1*
X2127156Y1771616D1*
X2128375Y1771202D1*
X2129530Y1770633D1*
X2130601Y1769918D1*
X2131569Y1769069D1*
X2132418Y1768101D1*
X2133133Y1767030D1*
X2133702Y1765875D1*
X2134116Y1764656D1*
X2134367Y1763394D1*
X2134451Y1762109D1*
X2134367Y1760824D1*
X2134116Y1759561D1*
X2133702Y1758342D1*
X2133133Y1757188D1*
X2132418Y1756117D1*
X2131569Y1755149D1*
X2130601Y1754300D1*
X2129530Y1753585D1*
X2128375Y1753016D1*
X2127156Y1752602D1*
X2125894Y1752351D1*
X2124609Y1752266D1*
D1*
X2123324Y1752351D1*
X2122061Y1752602D1*
X2120842Y1753016D1*
X2119688Y1753585D1*
X2118617Y1754300D1*
X2117649Y1755149D1*
X2116800Y1756117D1*
X2116085Y1757188D1*
X2115516Y1758342D1*
X2115102Y1759561D1*
X2114851Y1760824D1*
X2114766Y1762109D1*
X2114851Y1763394D1*
X2115102Y1764656D1*
X2115516Y1765875D1*
X2116085Y1767030D1*
X2116800Y1768101D1*
X2117649Y1769069D1*
X2118617Y1769918D1*
X2119688Y1770633D1*
X2120842Y1771202D1*
X2122061Y1771616D1*
X2123324Y1771867D1*
X2124609Y1771951D1*
D1*
G37*
X469783Y2012795D2*
G54D10*
X351673D1*
Y1737205D1*
X469783D1*
Y2012795D1*
X203740Y2048425D2*
X42323D1*
Y1556299D1*
X203740D1*
Y2048425D1*
G36*
X125000Y2075197D2*
X126285Y2075113D1*
X127547Y2074861D1*
X128767Y2074448D1*
X129921Y2073878D1*
X130992Y2073163D1*
X131960Y2072314D1*
X132809Y2071346D1*
X133524Y2070276D1*
X134093Y2069121D1*
X134507Y2067902D1*
X134758Y2066639D1*
X134843Y2065354D1*
X134758Y2064070D1*
X134507Y2062807D1*
X134093Y2061588D1*
X133524Y2060433D1*
X132809Y2059363D1*
X131960Y2058395D1*
X130992Y2057546D1*
X129921Y2056830D1*
X128767Y2056261D1*
X127547Y2055847D1*
X126285Y2055596D1*
X125000Y2055512D1*
D1*
X123715Y2055596D1*
X122453Y2055847D1*
X121233Y2056261D1*
X120079Y2056830D1*
X119008Y2057546D1*
X118040Y2058395D1*
X117191Y2059363D1*
X116476Y2060433D1*
X115907Y2061588D1*
X115493Y2062807D1*
X115242Y2064070D1*
X115157Y2065354D1*
X115242Y2066639D1*
X115493Y2067902D1*
X115907Y2069121D1*
X116476Y2070276D1*
X117191Y2071346D1*
X118040Y2072314D1*
X119008Y2073163D1*
X120079Y2073878D1*
X121233Y2074448D1*
X122453Y2074861D1*
X123715Y2075113D1*
X125000Y2075197D1*
D1*
G37*
X92323Y200001D2*
G54D10*
G02X92323Y200001I122047J0D01*
G01*
G36*
X312639Y308118D2*
X313924Y308034D1*
X315186Y307783D1*
X316406Y307369D1*
X317560Y306799D1*
X318631Y306084D1*
X319599Y305235D1*
X320448Y304267D1*
X321163Y303197D1*
X321732Y302042D1*
X322146Y300823D1*
X322397Y299560D1*
X322482Y298276D1*
X322398Y296991D1*
X322146Y295728D1*
X321733Y294509D1*
X321163Y293354D1*
X320448Y292284D1*
X319599Y291316D1*
X318631Y290467D1*
X317561Y289752D1*
X316406Y289182D1*
X315187Y288768D1*
X313924Y288517D1*
X312639Y288433D1*
D1*
X311355Y288517D1*
X310092Y288768D1*
X308873Y289182D1*
X307718Y289751D1*
X306648Y290467D1*
X305680Y291316D1*
X304831Y292284D1*
X304115Y293354D1*
X303546Y294509D1*
X303132Y295728D1*
X302881Y296991D1*
X302797Y298275D1*
X302881Y299560D1*
X303132Y300823D1*
X303546Y302042D1*
X304115Y303197D1*
X304830Y304267D1*
X305679Y305235D1*
X306647Y306084D1*
X307718Y306799D1*
X308872Y307369D1*
X310092Y307783D1*
X311354Y308034D1*
X312639Y308118D1*
D1*
G37*
X857500Y1682350D2*
G54D10*
X917500D1*
X857500Y1842650D2*
Y1682350D1*
Y1842650D2*
X917500D1*
Y1682350D1*
X730000Y1844697D2*
X670000D1*
X730000Y1684398D2*
Y1844697D1*
Y1684398D2*
X670000D1*
Y1844697D1*
X1045000Y1682350D2*
X1105000D1*
X1045000Y1842650D2*
Y1682350D1*
Y1842650D2*
X1105000D1*
Y1682350D1*
X1407500Y1279791D2*
X1467500D1*
X1407500Y1440091D2*
Y1279791D1*
Y1440091D2*
X1467500D1*
Y1279791D1*
X1220000Y1682350D2*
X1280000D1*
X1220000Y1842650D2*
Y1682350D1*
Y1842650D2*
X1280000D1*
Y1682350D1*
X1517499Y1842650D2*
X1457499Y1842649D1*
X1517501Y1682351D2*
X1517499Y1842650D1*
X1517501Y1682351D2*
X1457501Y1682350D1*
X1457499Y1842649D1*
X1457500Y694850D2*
X1517500D1*
X1457500Y855150D2*
Y694850D1*
Y855150D2*
X1517500D1*
Y694850D1*
X1750610Y462650D2*
X1690610D1*
X1750610Y302350D2*
Y462650D1*
Y302350D2*
X1690610D1*
Y462650D1*
X1868720Y302350D2*
X1928720D1*
X1868720Y462650D2*
Y302350D1*
Y462650D2*
X1928720D1*
Y302350D1*
X720000Y332350D2*
X780000D1*
X720000Y492650D2*
Y332350D1*
Y492650D2*
X780000D1*
Y332350D1*
X1342500Y455150D2*
X1282500D1*
X1342500Y294850D2*
Y455150D1*
Y294850D2*
X1282500D1*
Y455150D1*
X1807500Y1757350D2*
X1867500D1*
X1807500Y1917650D2*
Y1757350D1*
Y1917650D2*
X1867500D1*
Y1757350D1*
Y842650D2*
X1807500D1*
X1867500Y682350D2*
Y842650D1*
Y682350D2*
X1807500D1*
Y842650D1*
Y1207350D2*
X1867500D1*
X1807500Y1367650D2*
Y1207350D1*
Y1367650D2*
X1867500D1*
Y1207350D1*
X2092500Y842650D2*
X2032500D1*
X2092500Y682350D2*
Y842650D1*
Y682350D2*
X2032500D1*
Y842650D1*
X907579Y757972D2*
Y699705D1*
X1167421D1*
Y757972D1*
X907579Y1417028D2*
Y1475295D1*
X1167421D1*
Y1417028D1*
G36*
X1230807Y777657D2*
X1229522Y777742D1*
X1228260Y777993D1*
X1227041Y778407D1*
X1225886Y778976D1*
X1224815Y779691D1*
X1223847Y780540D1*
X1222998Y781508D1*
X1222283Y782579D1*
X1221714Y783733D1*
X1221300Y784953D1*
X1221049Y786215D1*
X1220965Y787500D1*
X1221049Y788785D1*
X1221300Y790047D1*
X1221714Y791267D1*
X1222283Y792421D1*
X1222998Y793492D1*
X1223847Y794460D1*
X1224815Y795309D1*
X1225886Y796024D1*
X1227041Y796593D1*
X1228260Y797007D1*
X1229522Y797258D1*
X1230807Y797343D1*
D1*
X1232092Y797258D1*
X1233355Y797007D1*
X1234574Y796593D1*
X1235728Y796024D1*
X1236799Y795309D1*
X1237767Y794460D1*
X1238616Y793492D1*
X1239331Y792421D1*
X1239900Y791267D1*
X1240314Y790047D1*
X1240565Y788785D1*
X1240650Y787500D1*
X1240565Y786215D1*
X1240314Y784953D1*
X1239900Y783733D1*
X1239331Y782579D1*
X1238616Y781508D1*
X1237767Y780540D1*
X1236799Y779691D1*
X1235728Y778976D1*
X1234574Y778407D1*
X1233355Y777993D1*
X1232092Y777742D1*
X1230807Y777657D1*
D1*
G37*
X2264209Y248031D2*
G54D65*
X2268962Y250407D1*
X2273770Y255216D1*
X2276147Y259969D1*
Y269531D1*
X2273770Y274339D1*
X2268962Y279092D1*
X2264209Y281524D1*
X2257024Y283901D1*
X2245030D1*
X2237900Y281524D1*
X2233092Y279092D1*
X2228339Y274339D1*
X2225907Y269531D1*
Y259969D1*
X2228339Y255216D1*
X2233092Y250407D1*
X2237900Y248031D1*
X2266530Y232592D2*
X2268962Y227783D1*
X2276092Y220598D1*
X2225907D1*
X1391215Y380966D2*
X1386462Y378590D1*
X1381654Y373781D1*
X1379277Y369028D1*
Y359466D1*
X1381654Y354658D1*
X1386463Y349905D1*
X1391216Y347473D1*
X1398401Y345097D1*
X1410394D1*
X1417524Y347474D1*
X1422332Y349906D1*
X1427086Y354659D1*
X1429517Y359467D1*
Y369029D1*
X1427085Y373782D1*
X1422332Y378590D1*
X1417523Y380967D1*
X1391270Y398838D2*
X1388893D1*
X1384085Y401214D1*
X1381708Y403591D1*
X1379332Y408399D1*
Y417961D1*
X1381708Y422714D1*
X1384085Y425090D1*
X1388893Y427522D1*
X1393646D1*
X1398455Y425091D1*
X1405584Y420338D1*
X1429517Y396406D1*
X1429516Y429900D1*
X346285Y1181531D2*
X351038Y1183908D1*
X355847Y1188716D1*
X358223Y1193470D1*
Y1203031D1*
X355847Y1207840D1*
X351038Y1212593D1*
X346285Y1215025D1*
X339100Y1217401D1*
X327106D1*
X319977Y1215025D1*
X315168Y1212593D1*
X310415Y1207840D1*
X307983Y1203031D1*
Y1193470D1*
X310415Y1188716D1*
X315168Y1183908D1*
X319977Y1181531D1*
X358168Y1161284D2*
Y1135031D1*
X339045Y1149345D1*
Y1142160D1*
X336668Y1137407D1*
X334291Y1135031D1*
X327106Y1132599D1*
X322353D1*
X315168Y1135031D1*
X310360Y1139784D1*
X307983Y1146969D1*
Y1154154D1*
X310360Y1161284D1*
X312792Y1163660D1*
X317545Y1166092D1*
X346285Y635164D2*
X351038Y637540D1*
X355846Y642349D1*
X358223Y647102D1*
X358222Y656664D1*
X355846Y661472D1*
X351037Y666225D1*
X346284Y668657D1*
X339099Y671033D1*
X327105D1*
X319976Y668656D1*
X315167Y666224D1*
X310414Y661471D1*
X307982Y656663D1*
X307983Y647101D1*
X310415Y642348D1*
X315168Y637539D1*
X319976Y635163D1*
X307984Y595792D2*
X358169Y595793D1*
X324730Y619724D1*
X324731Y583854D1*
X608785Y1181534D2*
X613538Y1183911D1*
X618346Y1188720D1*
X620723Y1193473D1*
X620722Y1203035D1*
X618346Y1207843D1*
X613537Y1212596D1*
X608784Y1215028D1*
X601599Y1217404D1*
X589605D1*
X582476Y1215027D1*
X577667Y1212595D1*
X572914Y1207842D1*
X570482Y1203033D1*
X570483Y1193472D1*
X572915Y1188719D1*
X577668Y1183910D1*
X582477Y1181534D1*
X620669Y1137411D2*
X620668Y1161287D1*
X599168Y1163663D1*
X601545Y1161287D1*
X603977Y1154102D1*
Y1146972D1*
X601546Y1139787D1*
X596793Y1134978D1*
X589608Y1132601D1*
X584854D1*
X577669Y1134978D1*
X572861Y1139786D1*
X570484Y1146971D1*
Y1154101D1*
X572860Y1161286D1*
X575292Y1163662D1*
X580045Y1166094D1*
X1171285Y442815D2*
X1176038Y445192D1*
X1180847Y450000D1*
X1183223Y454754D1*
Y464315D1*
X1180847Y469124D1*
X1176038Y473877D1*
X1171285Y476309D1*
X1164100Y478685D1*
X1152106D1*
X1144977Y476309D1*
X1140168Y473877D1*
X1135415Y469124D1*
X1132983Y464315D1*
Y454754D1*
X1135415Y450000D1*
X1140168Y445192D1*
X1144977Y442815D1*
X1176038Y398691D2*
X1180791Y401068D1*
X1183168Y408253D1*
Y413006D1*
X1180791Y420191D1*
X1173606Y425000D1*
X1161668Y427376D1*
X1149730D1*
X1140168Y425000D1*
X1135360Y420191D1*
X1132983Y413006D1*
Y410629D1*
X1135360Y403500D1*
X1140168Y398691D1*
X1147353Y396315D1*
X1149730D1*
X1156915Y398691D1*
X1161668Y403500D1*
X1164045Y410629D1*
Y413006D1*
X1161668Y420191D1*
X1156915Y425000D1*
X1149730Y427376D1*
X608785Y644031D2*
X613538Y646408D1*
X618347Y651216D1*
X620723Y655970D1*
Y665531D1*
X618347Y670340D1*
X613538Y675093D1*
X608785Y677525D1*
X601600Y679901D1*
X589606D1*
X582477Y677525D1*
X577668Y675093D1*
X572915Y670340D1*
X570483Y665531D1*
Y655970D1*
X572915Y651216D1*
X577668Y646408D1*
X582477Y644031D1*
X570483Y619030D2*
X620668Y595099D1*
Y628592D1*
X2214209Y1696253D2*
X2218962Y1698630D1*
X2223770Y1703438D1*
X2226147Y1708191D1*
Y1717753D1*
X2223770Y1722561D1*
X2218962Y1727315D1*
X2214209Y1729746D1*
X2207024Y1732123D1*
X2195030D1*
X2187900Y1729746D1*
X2183092Y1727315D1*
X2178339Y1722561D1*
X2175907Y1717753D1*
Y1708191D1*
X2178339Y1703438D1*
X2183092Y1698630D1*
X2187900Y1696253D1*
X2226092Y1668876D2*
X2223715Y1676005D1*
X2218962Y1678437D1*
X2214153D1*
X2209400Y1676005D1*
X2206968Y1671252D1*
X2204592Y1661691D1*
X2202215Y1654505D1*
X2197407Y1649752D1*
X2192654Y1647376D1*
X2185469D1*
X2180715Y1649752D1*
X2178284Y1652129D1*
X2175907Y1659314D1*
Y1668876D1*
X2178284Y1676005D1*
X2180715Y1678437D1*
X2185469Y1680814D1*
X2192654D1*
X2197407Y1678437D1*
X2202215Y1673629D1*
X2204592Y1666499D1*
X2206968Y1656937D1*
X2209400Y1652129D1*
X2214153Y1649752D1*
X2218962D1*
X2223715Y1652129D1*
X2226092Y1659314D1*
Y1668876D1*
X540911Y1880343D2*
X545664Y1882720D1*
X550472Y1887528D1*
X552849Y1892281D1*
Y1901843D1*
X550472Y1906651D1*
X545664Y1911405D1*
X540911Y1913836D1*
X533726Y1916213D1*
X521732D1*
X514603Y1913836D1*
X509794Y1911405D1*
X505041Y1906651D1*
X502609Y1901843D1*
Y1892281D1*
X505041Y1887528D1*
X509794Y1882720D1*
X514603Y1880343D1*
X536102Y1833787D2*
X528917Y1836219D1*
X524109Y1840972D1*
X521732Y1848157D1*
Y1850534D1*
X524109Y1857719D1*
X528917Y1862472D1*
X536102Y1864904D1*
X538479D1*
X545664Y1862472D1*
X550417Y1857719D1*
X552794Y1850534D1*
Y1848157D1*
X550417Y1840972D1*
X545664Y1836219D1*
X536102Y1833787D1*
X524109D1*
X512171Y1836219D1*
X504986Y1840972D1*
X502609Y1848157D1*
Y1852910D1*
X504986Y1860095D1*
X509794Y1862472D1*
X296639Y1807656D2*
X258393D1*
X251208Y1810033D1*
X248831Y1812464D1*
X246399Y1817218D1*
Y1822026D1*
X248831Y1826779D1*
X251208Y1829156D1*
X258393Y1831588D1*
X263146D1*
X287022Y1792217D2*
X289454Y1787408D1*
X296584Y1780223D1*
X246399D1*
X369242Y219065D2*
X419482Y219066D1*
X369242Y238188D1*
X419481Y257313D1*
X369241Y257311D1*
X419483Y203627D2*
X369243Y203625D1*
X419484Y170133D2*
X385989Y203626D1*
X397983Y191688D2*
X369244Y170132D1*
X409867Y154694D2*
X412299Y149886D1*
X419429Y142701D1*
X369244Y142699D1*
X966791Y1792963D2*
Y1771463D1*
X969223Y1764278D1*
X971600Y1761846D1*
X976353Y1759470D1*
X981161D1*
X985915Y1761846D1*
X988346Y1764278D1*
X990723Y1771463D1*
Y1792963D1*
X940483D1*
X966791Y1776216D2*
X940483Y1759470D1*
X981106Y1744030D2*
X983538Y1739222D1*
X990668Y1732037D1*
X940483D1*
X620709Y1723334D2*
Y1744834D1*
X618277Y1752019D1*
X615900Y1754451D1*
X611147Y1756828D1*
X606339D1*
X601585Y1754451D1*
X599154Y1752019D1*
X596777Y1744834D1*
Y1723334D1*
X647017D1*
X620709Y1740081D2*
X647017Y1756828D1*
X608770Y1774699D2*
X606394D1*
X601585Y1777075D1*
X599209Y1779452D1*
X596832Y1784260D1*
Y1793822D1*
X599209Y1798575D1*
X601585Y1800952D1*
X606394Y1803384D1*
X611147D1*
X615955Y1800952D1*
X623085Y1796199D1*
X647017Y1772267D1*
Y1805760D1*
X1154291Y1803713D2*
Y1782213D1*
X1156723Y1775028D1*
X1159100Y1772596D1*
X1163853Y1770220D1*
X1168661D1*
X1173415Y1772596D1*
X1175846Y1775028D1*
X1178223Y1782213D1*
Y1803713D1*
X1127983D1*
X1154291Y1786966D2*
X1127983Y1770220D1*
X1178168Y1749972D2*
Y1723719D1*
X1159045Y1738034D1*
Y1730849D1*
X1156668Y1726095D1*
X1154291Y1723719D1*
X1147106Y1721287D1*
X1142353D1*
X1135168Y1723719D1*
X1130360Y1728472D1*
X1127983Y1735657D1*
Y1742842D1*
X1130360Y1749972D1*
X1132792Y1752349D1*
X1137545Y1754780D1*
X1516791Y1402342D2*
Y1380842D1*
X1519223Y1373657D1*
X1521600Y1371225D1*
X1526353Y1368849D1*
X1531161D1*
X1535915Y1371225D1*
X1538346Y1373657D1*
X1540723Y1380842D1*
Y1402342D1*
X1490483D1*
X1516791Y1385596D2*
X1490483Y1368849D1*
Y1329478D2*
X1540668D1*
X1507230Y1353410D1*
Y1317540D1*
X1329291Y1803713D2*
Y1782213D1*
X1331723Y1775028D1*
X1334100Y1772596D1*
X1338853Y1770220D1*
X1343661D1*
X1348415Y1772596D1*
X1350846Y1775028D1*
X1353223Y1782213D1*
Y1803713D1*
X1302983D1*
X1329291Y1786966D2*
X1302983Y1770220D1*
X1353168Y1726095D2*
Y1749972D1*
X1331668Y1752349D1*
X1334045Y1749972D1*
X1336476Y1742787D1*
Y1735657D1*
X1334045Y1728472D1*
X1329291Y1723664D1*
X1322106Y1721287D1*
X1317353D1*
X1310168Y1723664D1*
X1305360Y1728472D1*
X1302983Y1735657D1*
Y1742787D1*
X1305360Y1749972D1*
X1307792Y1752349D1*
X1312545Y1754780D1*
X1408209Y1722502D2*
Y1744001D1*
X1405777Y1751186D1*
X1403400Y1753618D1*
X1398647Y1755995D1*
X1393839D1*
X1389086Y1753618D1*
X1386654Y1751186D1*
X1384277Y1744001D1*
X1384278Y1722501D1*
X1434518Y1722502D1*
X1408209Y1739248D2*
X1434517Y1755995D1*
X1391461Y1800119D2*
X1386708Y1797742D1*
X1384332Y1790557D1*
Y1785804D1*
X1386708Y1778619D1*
X1393894Y1773810D1*
X1405832Y1771434D1*
X1417770D1*
X1427332Y1773811D1*
X1432140Y1778620D1*
X1434517Y1785805D1*
X1434516Y1788181D1*
X1432140Y1795311D1*
X1427331Y1800119D1*
X1420146Y1802496D1*
X1417770D1*
X1410585Y1800119D1*
X1405831Y1795310D1*
X1403455Y1788181D1*
Y1785804D1*
X1405832Y1778619D1*
X1410585Y1773811D1*
X1417770Y1771434D1*
X1566791Y816213D2*
Y794713D1*
X1569223Y787528D1*
X1571600Y785096D1*
X1576353Y782720D1*
X1581161D1*
X1585915Y785096D1*
X1588346Y787528D1*
X1590723Y794713D1*
Y816213D1*
X1540483D1*
X1566791Y799466D2*
X1540483Y782720D1*
Y757719D2*
X1590668Y733787D1*
Y767280D1*
X1641319Y341315D2*
Y362815D1*
X1638887Y370000D1*
X1636510Y372431D1*
X1631757Y374808D1*
X1626949D1*
X1622196Y372431D1*
X1619764Y370000D1*
X1617387Y362815D1*
Y341315D1*
X1667627D1*
X1641319Y358061D2*
X1667627Y374808D1*
X1617442Y402185D2*
X1619819Y395056D1*
X1624572Y392624D1*
X1629381D1*
X1634134Y395056D1*
X1636566Y399809D1*
X1638942Y409371D1*
X1641319Y416556D1*
X1646127Y421309D1*
X1650880Y423685D1*
X1658066D1*
X1662819Y421309D1*
X1665251Y418932D1*
X1667627Y411747D1*
Y402185D1*
X1665251Y395056D1*
X1662819Y392624D1*
X1658066Y390247D1*
X1650880D1*
X1646127Y392624D1*
X1641319Y397432D1*
X1638942Y404562D1*
X1636566Y414124D1*
X1634134Y418932D1*
X1629381Y421309D1*
X1624572D1*
X1619819Y418932D1*
X1617442Y411747D1*
Y402185D1*
X1978012Y422525D2*
Y401025D1*
X1980444Y393840D1*
X1982820Y391408D1*
X1987573Y389031D1*
X1992382D1*
X1997135Y391408D1*
X1999567Y393840D1*
X2001944Y401025D1*
Y422525D1*
X1951704D1*
X1978012Y405778D2*
X1951704Y389031D1*
X1985197Y342475D2*
X1978012Y344907D1*
X1973203Y349660D1*
X1970827Y356845D1*
Y359222D1*
X1973203Y366407D1*
X1978012Y371160D1*
X1985197Y373592D1*
X1987573D1*
X1994759Y371160D1*
X1999512Y366407D1*
X2001888Y359222D1*
Y356845D1*
X1999512Y349660D1*
X1994759Y344907D1*
X1985197Y342475D1*
X1973203D1*
X1961265Y344907D1*
X1954080Y349660D1*
X1951704Y356845D1*
Y361599D1*
X1954080Y368784D1*
X1958889Y371160D1*
X829291Y467429D2*
Y445929D1*
X831723Y438744D1*
X834100Y436313D1*
X838853Y433936D1*
X843661D1*
X848415Y436313D1*
X850846Y438744D1*
X853223Y445929D1*
Y467429D1*
X802983D1*
X829291Y450683D2*
X802983Y433936D1*
X843606Y418497D2*
X846038Y413688D1*
X853168Y406503D1*
X802983D1*
X853168Y376694D2*
X850791Y383879D1*
X843606Y388687D1*
X831668Y391064D1*
X824483D1*
X812545Y388687D1*
X805360Y383879D1*
X802983Y376694D1*
Y371941D1*
X805360Y364756D1*
X812545Y360003D1*
X824483Y357571D1*
X831668D1*
X843606Y360003D1*
X850791Y364756D1*
X853168Y371941D1*
Y376694D1*
X843606Y360003D2*
X812545Y388687D1*
X1233209Y330821D2*
Y352320D1*
X1230777Y359505D1*
X1228400Y361937D1*
X1223647Y364314D1*
X1218839D1*
X1214085Y361937D1*
X1211654Y359505D1*
X1209277Y352320D1*
Y330821D1*
X1259517D1*
X1233209Y347567D2*
X1259517Y364314D1*
X1218894Y379753D2*
X1216462Y384562D1*
X1209332Y391747D1*
X1259517D1*
X1218894Y407186D2*
X1216462Y411994D1*
X1209332Y419179D1*
X1259517D1*
X1916791Y1892429D2*
Y1870929D1*
X1919223Y1863744D1*
X1921600Y1861313D1*
X1926353Y1858936D1*
X1931161D1*
X1935915Y1861313D1*
X1938346Y1863744D1*
X1940723Y1870929D1*
Y1892429D1*
X1890483D1*
X1916791Y1875683D2*
X1890483Y1858936D1*
X1931106Y1843497D2*
X1933538Y1838688D1*
X1940668Y1831503D1*
X1890483D1*
X1928730Y1813632D2*
X1931106D1*
X1935915Y1811256D1*
X1938291Y1808879D1*
X1940668Y1804071D1*
Y1794509D1*
X1938291Y1789756D1*
X1935915Y1787379D1*
X1931106Y1784947D1*
X1926353D1*
X1921545Y1787379D1*
X1914415Y1792132D1*
X1890483Y1816064D1*
Y1782571D1*
X1758209Y707571D2*
Y729071D1*
X1755777Y736256D1*
X1753400Y738687D1*
X1748647Y741064D1*
X1743839D1*
X1739085Y738687D1*
X1736654Y736256D1*
X1734277Y729071D1*
Y707571D1*
X1784517D1*
X1758209Y724317D2*
X1784517Y741064D1*
X1743894Y756503D2*
X1741462Y761312D1*
X1734332Y768497D1*
X1784517D1*
X1734332Y788744D2*
Y814997D1*
X1753455Y800683D1*
Y807868D1*
X1755832Y812621D1*
X1758209Y814997D1*
X1765394Y817429D1*
X1770147D1*
X1777332Y814997D1*
X1782140Y810244D1*
X1784517Y803059D1*
Y795874D1*
X1782140Y788744D1*
X1779708Y786368D1*
X1774955Y783936D1*
X1916791Y1343618D2*
Y1322118D1*
X1919223Y1314933D1*
X1921600Y1312501D1*
X1926353Y1310124D1*
X1931161D1*
X1935915Y1312501D1*
X1938346Y1314933D1*
X1940723Y1322118D1*
Y1343618D1*
X1890483D1*
X1916791Y1326871D2*
X1890483Y1310124D1*
X1931106Y1294685D2*
X1933538Y1289877D1*
X1940668Y1282692D1*
X1890483D1*
Y1243321D2*
X1940668D1*
X1907230Y1267252D1*
Y1231382D1*
X1983209Y707571D2*
Y729071D1*
X1980777Y736256D1*
X1978400Y738687D1*
X1973647Y741064D1*
X1968839D1*
X1964085Y738687D1*
X1961654Y736256D1*
X1959277Y729071D1*
Y707571D1*
X2009517D1*
X1983209Y724317D2*
X2009517Y741064D1*
X1968894Y756503D2*
X1966462Y761312D1*
X1959332Y768497D1*
X2009517D1*
X1959332Y812621D2*
Y788744D1*
X1980832Y786368D1*
X1978455Y788744D1*
X1976024Y795929D1*
Y803059D1*
X1978455Y810244D1*
X1983209Y815053D1*
X1990394Y817429D1*
X1995147D1*
X2002332Y815053D1*
X2007140Y810244D1*
X2009517Y803059D1*
Y795929D1*
X2007140Y788744D1*
X2004708Y786368D1*
X1999955Y783936D1*
X775694Y1057037D2*
X811564D1*
X818749Y1059414D1*
X823502Y1064222D1*
X825934Y1071407D1*
Y1076160D1*
X823502Y1083345D1*
X818749Y1088154D1*
X811564Y1090530D1*
X775694D1*
X785311Y1105970D2*
X782879Y1110778D1*
X775750Y1117963D1*
X825934D1*
M02*
